# xmcd
#
# Track frame offsets:
#	150
#	24813
#	45152
#	64709
#	81995
#	97329
#	113984
#	130589
#	146415
#	163104
#	176601
#	197550
#
# Disc length: 2770 seconds
#
# Revision: 0
# Processed by: cddbd v1.5.2PL0 Copyright (c) Steve Scherf et al.
# Submitted via: EZCDAudioConverter 2.0.4.1
#
DISCID=990ad00c
DTITLE=Noel Coutts - Live
DYEAR=1900
DGENRE=
TTITLE0=Romeo and Juliette
TTITLE1=One
TTITLE2=Summertime
TTITLE3=Forever
TTITLE4=Layla
TTITLE5=House of the Rising Sun
TTITLE6=Steamroller
TTITLE7=Folso Prison Blues
TTITLE8=Suzanne
TTITLE9=16 Tons
TTITLE10=Mr. Bojangles
TTITLE11=King of the Road
EXTD=
EXTT0=
EXTT1=
EXTT2=
EXTT3=
EXTT4=
EXTT5=
EXTT6=
EXTT7=
EXTT8=
EXTT9=
EXTT10=
EXTT11=
PLAYORDER=
